IKResults
version=1
nRows=46
nColumns=24
inDegrees=yes

Units are S.I. units (second, meters, Newtons, ...)
If the header above contains a line with 'inDegrees', this indicates whether rotational values are in degrees (yes) or radians (no).

endheader
time	pelvis_tilt	pelvis_list	pelvis_rotation	pelvis_tx	pelvis_ty	pelvis_tz	hip_flexion_r	hip_adduction_r	hip_rotation_r	knee_angle_r	ankle_angle_r	subtalar_angle_r	mtp_angle_r	hip_flexion_l	hip_adduction_l	hip_rotation_l	knee_angle_l	ankle_angle_l	subtalar_angle_l	mtp_angle_l	lumbar_extension	lumbar_bending	lumbar_rotation
2.150000	9.910571	2.056752	-180.669324	0.237851	0.849694	-1.205147	19.129114	-11.443389	-34.005055	-15.789537	-0.421992	6.882050	0.000000	20.561936	-16.969133	-28.168254	-18.888205	1.376732	7.617502	0.000000	-1.170527	2.314521	1.135791
2.155000	9.895666	2.062304	-180.654372	0.237913	0.849704	-1.205235	19.129277	-11.445077	-34.006595	-15.824645	-0.409130	6.877006	0.000000	20.576222	-16.984269	-28.158334	-18.926473	1.366527	7.609737	0.000000	-1.194597	2.318923	1.133671
2.160000	9.905962	2.069056	-180.668158	0.237900	0.849690	-1.205251	19.155389	-11.442777	-33.989565	-15.853886	-0.413471	6.885013	0.000000	20.579011	-16.990790	-28.152099	-18.905055	1.393578	7.608767	0.000000	-1.191558	2.351610	1.094750
2.165000	9.898007	2.066503	-180.642908	0.237969	0.849657	-1.205326	19.163527	-11.453277	-33.981926	-15.886793	-0.406983	6.876437	0.000000	20.608412	-16.996239	-28.129721	-18.953779	1.398508	7.612482	0.000000	-1.211392	2.340951	1.073565
2.170000	9.893203	2.081857	-180.618397	0.238032	0.849615	-1.205370	19.183706	-11.453501	-34.004769	-15.946798	-0.361067	6.830402	0.000000	20.642633	-17.016580	-28.088697	-18.994653	1.425271	7.605094	0.000000	-1.229918	2.345501	1.067947
2.175000	9.878761	2.088655	-180.618523	0.238099	0.849623	-1.205402	19.196060	-11.454383	-34.002645	-15.995260	-0.354241	6.818789	0.000000	20.660637	-17.035757	-28.071937	-19.063261	1.402019	7.589182	0.000000	-1.265969	2.348793	1.071104
2.180000	9.880681	2.122720	-180.624517	0.238196	0.849574	-1.205428	19.229474	-11.427010	-33.989798	-16.057189	-0.282233	6.786183	0.000000	20.700372	-17.080095	-28.031399	-19.115309	1.415210	7.510763	0.000000	-1.279709	2.374951	1.131285
2.185000	9.879751	2.127031	-180.590789	0.238265	0.849526	-1.205512	19.235459	-11.427659	-33.980869	-16.080174	-0.269432	6.759557	0.000000	20.741541	-17.086428	-27.942545	-19.142063	1.432865	7.487274	0.000000	-1.299476	2.371493	1.058994
2.190000	9.806534	2.105849	-180.519508	0.238494	0.849465	-1.205716	19.184857	-11.466086	-33.986212	-16.145667	-0.212589	6.704526	0.000000	20.768683	-17.088813	-27.873913	-19.292911	1.449505	7.464038	0.000000	-1.421923	2.297447	0.990578
2.195000	9.790991	2.110851	-180.508022	0.238622	0.849414	-1.205782	19.200935	-11.474583	-33.958965	-16.206133	-0.215836	6.702708	0.000000	20.793737	-17.107746	-27.835841	-19.328919	1.453458	7.469696	0.000000	-1.469581	2.297870	0.988585
2.200000	9.791733	2.129387	-180.491108	0.238748	0.849351	-1.205809	19.253723	-11.481528	-33.945559	-16.318270	-0.149283	6.661094	0.000000	20.856580	-17.138620	-27.764776	-19.419399	1.502281	7.449788	0.000000	-1.493510	2.313801	1.008488
2.205000	9.798131	2.133143	-180.491240	0.238877	0.849313	-1.205844	19.327703	-11.504049	-33.930568	-16.446236	-0.100654	6.611495	0.000000	20.916017	-17.163590	-27.681216	-19.513146	1.517060	7.433163	0.000000	-1.523250	2.323954	1.007505
2.210000	9.848783	2.145151	-180.525044	0.239034	0.849127	-1.205791	19.459099	-11.519549	-33.849728	-16.579085	-0.082509	6.596347	0.000000	21.026953	-17.197900	-27.635959	-19.630401	1.568771	7.360717	0.000000	-1.499148	2.347694	1.074959
2.215000	9.825735	2.135955	-180.503783	0.239199	0.849004	-1.205816	19.501247	-11.565890	-33.796827	-16.713498	-0.043429	6.566345	0.000000	21.083849	-17.212552	-27.596977	-19.764757	1.620167	7.337946	0.000000	-1.566646	2.334667	1.051965
2.220000	9.763520	2.129550	-180.446234	0.239505	0.848903	-1.205973	19.517056	-11.612690	-33.766288	-16.877046	0.030096	6.500983	0.000000	21.141785	-17.233942	-27.550540	-19.919395	1.641862	7.322780	0.000000	-1.697775	2.286331	1.030011
2.225000	9.740252	2.125852	-180.440501	0.239718	0.848801	-1.206012	19.594422	-11.663274	-33.708215	-17.074854	0.125084	6.443789	0.000000	21.202898	-17.265033	-27.469315	-20.071312	1.709131	7.323674	0.000000	-1.774351	2.267050	1.064943
2.230000	9.766806	2.134470	-180.457073	0.239975	0.848677	-1.206016	19.736776	-11.692734	-33.583189	-17.275458	0.207852	6.376466	0.000000	21.327851	-17.310770	-27.412195	-20.234504	1.747008	7.279126	0.000000	-1.801765	2.283474	1.096693
2.235000	9.802974	2.156182	-180.488136	0.240245	0.848451	-1.205974	19.917986	-11.726120	-33.479781	-17.535157	0.290688	6.291686	0.000000	21.476764	-17.367835	-27.370961	-20.426848	1.814538	7.188163	0.000000	-1.814311	2.320331	1.164680
2.240000	9.790573	2.133733	-180.460006	0.240561	0.848215	-1.206001	20.039377	-11.812830	-33.374407	-17.792633	0.385620	6.185253	0.000000	21.613399	-17.388236	-27.283579	-20.671510	1.899708	7.175172	0.000000	-1.902219	2.294584	1.118785
2.245000	9.727683	2.111194	-180.405898	0.240953	0.847967	-1.206123	20.129188	-11.918159	-33.304679	-18.110113	0.507014	6.093589	0.000000	21.738208	-17.430223	-27.212327	-20.977492	1.979091	7.172036	0.000000	-2.058841	2.247258	1.073277
2.250000	9.812597	2.106592	-180.443454	0.241329	0.847589	-1.206071	20.417725	-11.993306	-33.115081	-18.464048	0.619408	6.011376	0.000000	21.993641	-17.488051	-27.117171	-21.291683	2.108769	7.148469	0.000000	-2.048382	2.258540	1.119434
2.255000	9.810663	2.103926	-180.450947	0.241737	0.847255	-1.206039	20.635179	-12.089698	-32.969720	-18.875254	0.765191	5.879333	0.000000	22.195415	-17.562212	-27.022522	-21.651733	2.252332	7.145743	0.000000	-2.142936	2.253904	1.161747
2.260000	9.752005	2.098214	-180.413739	0.242219	0.846927	-1.206105	20.838404	-12.225445	-32.949598	-19.424714	0.858628	5.692004	0.000000	22.379546	-17.643992	-26.902431	-22.052140	2.338381	7.133206	0.000000	-2.315571	2.218970	1.179789
2.265000	9.773502	2.071721	-180.400187	0.242725	0.846461	-1.206136	21.114154	-12.362646	-32.777627	-19.874977	1.018987	5.566030	0.000000	22.647957	-17.699530	-26.761145	-22.461156	2.482213	7.128297	0.000000	-2.396081	2.184841	1.184777
2.270000	9.832268	2.047140	-180.413732	0.243225	0.845892	-1.206086	21.423090	-12.481090	-32.433490	-20.321837	1.255333	5.499213	0.000000	22.970521	-17.766084	-26.597327	-22.922141	2.660800	7.096207	0.000000	-2.438891	2.168175	1.179960
2.275000	9.754497	2.018080	-180.354157	0.243813	0.845376	-1.206216	21.631032	-12.647551	-32.263911	-20.884218	1.477083	5.352622	0.000000	23.189180	-17.829611	-26.399943	-23.399226	2.825757	7.080676	0.000000	-2.659238	2.104631	1.148145
2.280000	9.827802	2.019197	-180.400258	0.244334	0.844718	-1.206130	22.091242	-12.816534	-32.171006	-21.620342	1.623255	5.159243	0.000000	23.542233	-17.937193	-26.241132	-23.905410	3.001678	6.996750	0.000000	-2.699373	2.128890	1.210809
2.285000	9.844719	1.982773	-180.394570	0.245018	0.843997	-1.206125	22.473466	-13.009617	-31.928219	-22.282212	1.842230	4.976588	0.000000	23.869199	-17.990567	-25.993551	-24.413180	3.099059	6.829269	0.000000	-2.823119	2.087264	1.262058
2.290000	9.820498	1.936155	-180.391668	0.245582	0.843182	-1.206068	22.791038	-13.206928	-31.626233	-22.896691	2.212313	4.908788	0.000000	24.160887	-18.050680	-25.792388	-24.990177	3.329452	6.754415	0.000000	-2.982459	2.031524	1.325585
2.295000	9.890953	1.926385	-180.411128	0.246199	0.842316	-1.206106	23.244871	-13.375326	-31.410140	-23.591873	2.439829	4.822592	0.000000	24.565689	-18.173566	-25.634289	-25.587728	3.554097	6.744997	0.000000	-3.036709	2.027175	1.337043
2.300000	9.816029	1.902207	-180.351145	0.246955	0.841458	-1.206249	23.556910	-13.574270	-31.195666	-24.327740	2.733977	4.698231	0.000000	24.881670	-18.281598	-25.429070	-26.244839	3.823725	6.806172	0.000000	-3.289195	1.962764	1.304283
2.305000	9.856070	1.854189	-180.319761	0.247730	0.840422	-1.206352	24.017671	-13.795893	-30.950800	-25.091395	2.976377	4.568888	0.000000	25.319132	-18.398130	-25.346998	-26.932709	4.067187	6.945723	0.000000	-3.380581	1.897868	1.291784
2.310000	9.887193	1.828404	-180.313845	0.248508	0.839275	-1.206331	24.503592	-14.021022	-30.710910	-25.930134	3.299286	4.516507	0.000000	25.757780	-18.535352	-25.223628	-27.654439	4.385831	7.063698	0.000000	-3.515624	1.849149	1.351784
2.315000	9.917003	1.817828	-180.324108	0.249280	0.838115	-1.206373	24.985217	-14.224744	-30.520911	-26.762197	3.617896	4.501551	0.000000	26.212379	-18.722711	-25.153467	-28.420176	4.665452	7.232058	0.000000	-3.643953	1.830454	1.422939
2.320000	9.938586	1.788467	-180.305736	0.250144	0.836800	-1.206398	25.475994	-14.474973	-30.362800	-27.641204	3.954664	4.525996	0.000000	26.691407	-18.891193	-25.062090	-29.219770	4.968058	7.426918	0.000000	-3.784006	1.803439	1.420413
2.325000	9.943039	1.762994	-180.294833	0.251038	0.835359	-1.206495	25.956882	-14.706014	-30.148856	-28.520833	4.352509	4.507267	0.000000	27.171481	-19.063712	-24.910689	-30.043480	5.312059	7.547908	0.000000	-3.965833	1.761559	1.449709
2.330000	10.044218	1.757683	-180.317636	0.251864	0.833723	-1.206387	26.564216	-14.958161	-29.993946	-29.456357	4.687775	4.606352	0.000000	27.747852	-19.287503	-24.883816	-30.900103	5.645406	7.805716	0.000000	-4.033475	1.765225	1.556648
2.335000	10.052099	1.720660	-180.311622	0.252759	0.832133	-1.206511	27.083703	-15.227533	-29.803768	-30.405569	5.109102	4.655740	0.000000	28.233041	-19.479628	-24.815497	-31.738914	5.982150	8.034688	0.000000	-4.202842	1.724317	1.556048
2.340000	10.010915	1.714224	-180.245398	0.253733	0.830446	-1.206708	27.546741	-15.488556	-29.675779	-31.371930	5.561494	4.684546	0.000000	28.734873	-19.705332	-24.695270	-32.651900	6.348900	8.307714	0.000000	-4.448759	1.684689	1.539150
2.345000	10.084520	1.709264	-180.276015	0.254641	0.828622	-1.206724	28.146730	-15.727501	-29.486212	-32.318663	5.973204	4.750455	0.000000	29.318047	-19.955217	-24.670992	-33.595072	6.714247	8.514912	0.000000	-4.556617	1.681499	1.651350
2.350000	10.023742	1.686566	-180.182793	0.255669	0.826709	-1.206902	28.597637	-16.023251	-29.377138	-33.313308	6.438787	4.795069	0.000000	29.830998	-20.182880	-24.591257	-34.568642	7.142026	8.880156	0.000000	-4.835602	1.619258	1.590952
2.355000	10.061303	1.690378	-180.182890	0.256612	0.824611	-1.206921	29.173251	-16.267865	-29.192260	-34.307046	6.894420	4.898561	0.000000	30.404512	-20.442102	-24.536077	-35.510364	7.593532	9.154058	0.000000	-4.986411	1.626921	1.654774
2.360000	10.061106	1.710623	-180.169950	0.257654	0.822444	-1.207035	29.710310	-16.494418	-29.027746	-35.306984	7.355363	4.983376	0.000000	30.979868	-20.747972	-24.508320	-36.523225	8.009782	9.445953	0.000000	-5.195242	1.634743	1.724657
2.365000	10.062790	1.741779	-180.146244	0.258749	0.820171	-1.207114	30.273836	-16.729623	-28.886272	-36.359027	7.832328	5.080788	0.000000	31.580528	-21.055622	-24.438342	-37.545156	8.423020	9.713482	0.000000	-5.419636	1.661990	1.763938
2.370000	9.970684	1.740069	-180.086182	0.259853	0.817833	-1.207213	30.756808	-17.028387	-28.775770	-37.472176	8.368792	5.134898	0.000000	32.092594	-21.310604	-24.321377	-38.561906	8.838171	9.930257	0.000000	-5.743746	1.620820	1.809770
2.375000	9.951178	1.753717	-180.057689	0.260952	0.815369	-1.207295	31.320311	-17.296158	-28.626611	-38.563868	8.889561	5.154081	0.000000	32.671943	-21.594610	-24.229955	-39.571967	9.281704	10.178952	0.000000	-5.986625	1.636983	1.837929
